# xmcd
#
# Track frame offsets:
#	150
#	24260
#	51852
#	74172
#	96477
#	114502
#	135112
#	159117
#	183845
#	199885
#	216442
#	237122
#	254200
#
# Disc length: 4109 seconds
#
# Revision: 0
# Processed by: cddbd v1.5.2PL0 Copyright (c) Steve Scherf et al.
# Submitted via: EasyCDDAExtractor 15.0.0.1
#
DISCID=ba100b0d
DTITLE=Marion James - Essence
DYEAR=2010
DGENRE=Blues Soul
TTITLE0=Tables
TTITLE1=Give Me Love
TTITLE2=My Mama
TTITLE3=Let's Straighten It Out
TTITLE4=24 Hours
TTITLE5=Until The Real Thing Comes
TTITLE6=Please Don't Waste My Time
TTITLE7=I Should Have Known
TTITLE8=Be Anything, Be Mine
TTITLE9=Feel It
TTITLE10=Your History Baby
TTITLE11=I Want To Be Loved
TTITLE12=Interview
EXTD=
EXTT0=
EXTT1=
EXTT2=
EXTT3=
EXTT4=
EXTT5=
EXTT6=
EXTT7=
EXTT8=
EXTT9=
EXTT10=
EXTT11=
EXTT12=
PLAYORDER=
